COMMENT @(#)79	1.1  src/bos/usr/lpp/jls/fonts/RomanKn17.bdf, fontKJI, bos411, 9428A410j 2/24/94 10:09:28
COMMENT
COMMENT   COMPONENT_NAME: fontKJI
COMMENT
COMMENT   FUNCTIONS: none
COMMENT
COMMENT   ORIGINS: 27
COMMENT
COMMENT   IBM CONFIDENTIAL -- (IBM Confidential Restricted when
COMMENT   combined with the aggregated modules for this product)
COMMENT                    SOURCE MATERIALS
COMMENT
COMMENT   (C) COPYRIGHT International Business Machines Corp. 1989
COMMENT   All Rights Reserved
COMMENT   US Government Users Restricted Rights - Use, duplication or
COMMENT   disclosure restricted by GSA ADP Schedule Contract with IBM Corp.
COMMENT
STARTFONT 2.1
FONT -IBM_AIX-Mincho-Medium-R-Normal--27-170-100-100-M-130-JISX0201.1976-0
SIZE 27 100 100
FONTBOUNDINGBOX 13 27 0 -1
STARTPROPERTIES 23
FONTNAME_REGISTRY "-"
FOUNDRY "IBM_AIX"
FAMILY_NAME "Mincho"
WEIGHT_NAME "Medium"
SLANT "R"
SETWIDTH_NAME "Normal"
ADD_STYLE_NAME ""
PIXEL_SIZE 27
POINT_SIZE 170
RESOLUTION_X 100
RESOLUTION_Y 100
SPACING "M"
AVERAGE_WIDTH 130
CHARSET_REGISTRY "JISX0201.1976"
CHARSET_ENCODING "0"
FONT_ASCENT 26
FONT_DESCENT 1
DEFAULT_CHAR 0
CAP_HEIGHT 27
CHARSET_COLLECTIONS ""
COPYRIGHT "Copyright 1989 by IBM."
_IBM_AIX_CODESET "AIXstdNLS"
_IBM_AIX_SINGLEBYTE_CODEPAGE_SHIFTS ""
ENDPROPERTIES
CHARS 191
STARTCHAR    0
ENCODING 0
SWIDTH 481 0
DWIDTH 13 0
BBX 13 27 0 -1
BITMAP
0000
0000
0000
0000
0000
0000
0000
0000
0000
0000
0000
0000
0000
0000
0000
0000
0000
0000
0000
0000
0000
0000
0000
0000
0000
0000
0000
ENDCHAR
STARTCHAR    1
ENCODING 1
SWIDTH 481 0
DWIDTH 13 0
BBX 13 27 0 -1
BITMAP
0000
0000
0000
0000
0000
0000
0000
0000
0000
0000
0000
0000
07f8
0400
05f8
0500
0500
0500
0500
0500
0500
0500
0500
0500
0500
0500
0500
ENDCHAR
STARTCHAR    2
ENCODING 2
SWIDTH 481 0
DWIDTH 13 0
BBX 13 27 0 -1
BITMAP
0000
0000
0000
0000
0000
0000
0000
0000
0000
0000
0000
0000
ff00
0100
fd00
0500
0500
0500
0500
0500
0500
0500
0500
0500
0500
0500
0500
ENDCHAR
STARTCHAR    3
ENCODING 3
SWIDTH 481 0
DWIDTH 13 0
BBX 13 27 0 -1
BITMAP
0500
0500
0500
0500
0500
0500
0500
0500
0500
0500
0500
0500
05f8
0400
07f8
0000
0000
0000
0000
0000
0000
0000
0000
0000
0000
0000
0000
ENDCHAR
STARTCHAR    4
ENCODING 4
SWIDTH 481 0
DWIDTH 13 0
BBX 13 27 0 -1
BITMAP
0500
0500
0500
0500
0500
0500
0500
0500
0500
0500
0500
0500
fd00
0100
ff00
0000
0000
0000
0000
0000
0000
0000
0000
0000
0000
0000
0000
ENDCHAR
STARTCHAR    5
ENCODING 5
SWIDTH 481 0
DWIDTH 13 0
BBX 13 27 0 -1
BITMAP
0500
0500
0500
0500
0500
0500
0500
0500
0500
0500
0500
0500
0500
0500
0500
0500
0500
0500
0500
0500
0500
0500
0500
0500
0500
0500
0500
ENDCHAR
STARTCHAR    6
ENCODING 6
SWIDTH 481 0
DWIDTH 13 0
BBX 13 27 0 -1
BITMAP
0000
0000
0000
0000
0000
0000
0000
0000
0000
0000
0000
0000
fff8
0000
fff8
0000
0000
0000
0000
0000
0000
0000
0000
0000
0000
0000
0000
ENDCHAR
STARTCHAR    7
ENCODING 7
SWIDTH 481 0
DWIDTH 13 0
BBX 13 27 0 -1
BITMAP
0000
0000
0000
0000
0300
0300
0300
0300
0300
0300
0300
0300
0300
0300
0300
0300
0300
0300
1b60
0fc0
0780
0300
0000
0000
0000
0000
0000
ENDCHAR
STARTCHAR    8
ENCODING 8
SWIDTH 481 0
DWIDTH 13 0
BBX 13 27 0 -1
BITMAP
0000
0000
0000
0000
0000
0000
0000
0000
0000
0000
0000
0000
0000
0000
0000
0000
0000
0000
0000
0000
0000
0000
0000
0000
0000
0000
0000
ENDCHAR
STARTCHAR    9
ENCODING 9
SWIDTH 481 0
DWIDTH 13 0
BBX 13 27 0 -1
BITMAP
0000
0000
0000
0000
0000
0000
0000
0000
0000
0780
0840
1020
1020
1020
1020
0840
0780
0000
0000
0000
0000
0000
0000
0000
0000
0000
0000
ENDCHAR
STARTCHAR    a
ENCODING 10
SWIDTH 481 0
DWIDTH 13 0
BBX 13 27 0 -1
BITMAP
0000
0000
0000
0000
0000
0000
0000
0000
0000
0000
0000
0000
0000
0000
0000
0000
0000
0000
0000
0000
0000
0000
0000
0000
0000
0000
0000
ENDCHAR
STARTCHAR    b
ENCODING 11
SWIDTH 481 0
DWIDTH 13 0
BBX 13 27 0 -1
BITMAP
0000
7ff0
6030
6030
6030
5050
5050
4890
4890
4510
4510
4210
4210
4210
4210
4510
4510
4890
4890
5050
5050
6030
6030
6030
7ff0
0000
0000
ENDCHAR
STARTCHAR    c
ENCODING 12
SWIDTH 481 0
DWIDTH 13 0
BBX 13 27 0 -1
BITMAP
0000
0000
0000
0000
0000
0000
0000
0000
0000
0000
0000
0000
0000
0000
0000
0000
0000
0000
0000
0000
0000
0000
0000
0000
0000
0000
0000
ENDCHAR
STARTCHAR    d
ENCODING 13
SWIDTH 481 0
DWIDTH 13 0
BBX 13 27 0 -1
BITMAP
0000
0000
0000
0000
0000
0000
0000
0000
0000
0000
0000
0000
0000
0000
0000
0000
0000
0000
0000
0000
0000
0000
0000
0000
0000
0000
0000
ENDCHAR
STARTCHAR    e
ENCODING 14
SWIDTH 481 0
DWIDTH 13 0
BBX 13 27 0 -1
BITMAP
0000
0000
0000
0000
0000
0000
0000
0000
1fc0
1fc0
1fc0
1fc0
1fc0
1fc0
1fc0
1fc0
1fc0
1fc0
1fc0
0000
0000
0000
0000
0000
0000
0000
0000
ENDCHAR
STARTCHAR    f
ENCODING 15
SWIDTH 481 0
DWIDTH 13 0
BBX 13 27 0 -1
BITMAP
0000
0000
0000
0000
0000
0000
0000
0200
4210
6230
3760
18c0
1040
7070
1040
18c0
3760
6230
4210
0200
0000
0000
0000
0000
0000
0000
0000
ENDCHAR
STARTCHAR   10
ENCODING 16
SWIDTH 481 0
DWIDTH 13 0
BBX 13 27 0 -1
BITMAP
0500
0500
0500
0500
0500
0500
0500
0500
0500
0500
0500
0500
fdf8
0000
fdf8
0500
0500
0500
0500
0500
0500
0500
0500
0500
0500
0500
0500
ENDCHAR
STARTCHAR   11
ENCODING 17
SWIDTH 481 0
DWIDTH 13 0
BBX 13 27 0 -1
BITMAP
0000
0000
0000
0000
0000
0000
0000
0000
0000
0000
0000
0000
0000
0000
0000
0000
0000
0000
0000
0000
0000
0000
0000
0000
0000
0000
0000
ENDCHAR
STARTCHAR   12
ENCODING 18
SWIDTH 481 0
DWIDTH 13 0
BBX 13 27 0 -1
BITMAP
0000
0000
0000
0000
0300
0780
0fc0
1b60
0300
0300
0300
0300
0300
0300
0300
0300
0300
0300
1b60
0fc0
0780
0300
0000
0000
0000
0000
0000
ENDCHAR
STARTCHAR   13
ENCODING 19
SWIDTH 481 0
DWIDTH 13 0
BBX 13 27 0 -1
BITMAP
0000
0000
0000
0000
0000
0000
0000
0000
0000
0000
0000
0000
0000
0000
0000
0000
0000
0000
0000
0000
0000
0000
0000
0000
0000
0000
0000
ENDCHAR
STARTCHAR   14
ENCODING 20
SWIDTH 481 0
DWIDTH 13 0
BBX 13 27 0 -1
BITMAP
ddd8
eee8
7770
bbb8
ddd8
eee8
7770
bbb8
ddd8
eee8
7770
bbb8
ddd8
eee8
7770
bbb8
ddd8
eee8
7770
bbb8
ddd8
eee8
7770
bbb8
ddd8
eee8
7770
ENDCHAR
STARTCHAR   15
ENCODING 21
SWIDTH 481 0
DWIDTH 13 0
BBX 13 27 0 -1
BITMAP
0500
0500
0500
0500
0500
0500
0500
0500
0500
0500
0500
0500
fdf8
0000
fff8
0000
0000
0000
0000
0000
0000
0000
0000
0000
0000
0000
0000
ENDCHAR
STARTCHAR   16
ENCODING 22
SWIDTH 481 0
DWIDTH 13 0
BBX 13 27 0 -1
BITMAP
0000
0000
0000
0000
0000
0000
0000
0000
0000
0000
0000
0000
fff8
0000
fdf8
0500
0500
0500
0500
0500
0500
0500
0500
0500
0500
0500
0500
ENDCHAR
STARTCHAR   17
ENCODING 23
SWIDTH 481 0
DWIDTH 13 0
BBX 13 27 0 -1
BITMAP
0500
0500
0500
0500
0500
0500
0500
0500
0500
0500
0500
0500
fd00
0100
fd00
0500
0500
0500
0500
0500
0500
0500
0500
0500
0500
0500
0500
ENDCHAR
STARTCHAR   18
ENCODING 24
SWIDTH 481 0
DWIDTH 13 0
BBX 13 27 0 -1
BITMAP
0000
0000
0000
0000
0000
0000
0000
0000
0000
0000
0000
0000
0000
0000
0000
0000
0000
0000
0000
0000
0000
0000
0000
0000
0000
0000
0000
ENDCHAR
STARTCHAR   19
ENCODING 25
SWIDTH 481 0
DWIDTH 13 0
BBX 13 27 0 -1
BITMAP
0500
0500
0500
0500
0500
0500
0500
0500
0500
0500
0500
0500
05f8
0400
05f8
0500
0500
0500
0500
0500
0500
0500
0500
0500
0500
0500
0500
ENDCHAR
STARTCHAR   1a
ENCODING 26
SWIDTH 481 0
DWIDTH 13 0
BBX 13 27 0 -1
BITMAP
4440
2220
1110
8888
4440
2220
1110
8888
4440
2220
1110
8888
4440
2220
1110
8888
4440
2220
1110
8888
4440
2220
1110
8888
4440
2220
1110
ENDCHAR
STARTCHAR   1b
ENCODING 27
SWIDTH 481 0
DWIDTH 13 0
BBX 13 27 0 -1
BITMAP
0000
0000
0000
0000
0000
0000
0010
0010
0010
0010
0810
1010
2010
7ff0
2000
1000
0800
0000
0000
0000
0000
0000
0000
0000
0000
0000
0000
ENDCHAR
STARTCHAR   1c
ENCODING 28
SWIDTH 481 0
DWIDTH 13 0
BBX 13 27 0 -1
BITMAP
0000
0000
0000
0000
0300
0780
0fc0
1b60
0300
0300
0300
0300
0300
0300
0300
0300
0300
0300
0300
0300
0300
0300
0000
0000
0000
0000
0000
ENDCHAR
STARTCHAR   1d
ENCODING 29
SWIDTH 481 0
DWIDTH 13 0
BBX 13 27 0 -1
BITMAP
0200
0200
0200
0200
0200
0200
0200
0200
0200
0200
0200
0200
0200
0200
0200
0200
0200
0200
0200
0200
0200
0200
0200
0200
0200
0200
0200
ENDCHAR
STARTCHAR   1e
ENCODING 30
SWIDTH 481 0
DWIDTH 13 0
BBX 13 27 0 -1
BITMAP
0000
0000
0000
0000
0000
0000
0000
0000
0000
0040
0060
0030
7ff8
7ff8
0030
0060
0040
0000
0000
0000
0000
0000
0000
0000
0000
0000
0000
ENDCHAR
STARTCHAR   1f
ENCODING 31
SWIDTH 481 0
DWIDTH 13 0
BBX 13 27 0 -1
BITMAP
0000
0000
0000
0000
0000
0000
0000
0000
0000
0800
1800
3000
7ff8
7ff8
3000
1800
0800
0000
0000
0000
0000
0000
0000
0000
0000
0000
0000
ENDCHAR
STARTCHAR   20
ENCODING 32
SWIDTH 481 0
DWIDTH 13 0
BBX 13 27 0 -1
BITMAP
0000
0000
0000
0000
0000
0000
0000
0000
0000
0000
0000
0000
0000
0000
0000
0000
0000
0000
0000
0000
0000
0000
0000
0000
0000
0000
0000
ENDCHAR
STARTCHAR   21
ENCODING 33
SWIDTH 481 0
DWIDTH 13 0
BBX 13 27 0 -1
BITMAP
0000
0000
0100
0380
0380
0380
0380
0380
0380
0380
0380
0100
0100
0100
0100
0100
0100
0100
0000
0000
0100
0380
0380
0100
0000
0000
0000
ENDCHAR
STARTCHAR   22
ENCODING 34
SWIDTH 481 0
DWIDTH 13 0
BBX 13 27 0 -1
BITMAP
0000
0000
0000
1ce0
1ce0
1ce0
0840
0840
0840
0000
0000
0000
0000
0000
0000
0000
0000
0000
0000
0000
0000
0000
0000
0000
0000
0000
0000
ENDCHAR
STARTCHAR   23
ENCODING 35
SWIDTH 481 0
DWIDTH 13 0
BBX 13 27 0 -1
BITMAP
0000
0000
0000
0000
0000
00c0
18c0
18c0
18f0
1fc0
78c0
18c0
18c0
18c0
18f0
1fc0
78c0
18c0
18c0
18c0
18c0
1800
0000
0000
0000
0000
0000
ENDCHAR
STARTCHAR   24
ENCODING 36
SWIDTH 481 0
DWIDTH 13 0
BBX 13 27 0 -1
BITMAP
0000
0000
0000
0300
0300
1fe0
3330
6318
6318
6300
6300
3300
1f00
07c0
03e0
0330
0318
6318
6318
6318
3330
1fe0
0300
0300
0000
0000
0000
ENDCHAR
STARTCHAR   25
ENCODING 37
SWIDTH 481 0
DWIDTH 13 0
BBX 13 27 0 -1
BITMAP
0000
0000
0000
1800
2410
6630
6620
6660
6640
66c0
2580
1900
0300
0200
0600
04c0
0d20
1b30
1330
3330
2330
6330
4120
00c0
0000
0000
0000
ENDCHAR
STARTCHAR   26
ENCODING 38
SWIDTH 481 0
DWIDTH 13 0
BBX 13 27 0 -1
BITMAP
0000
0000
0000
0e00
1100
2100
2100
2100
3200
1400
1800
1c00
2400
2600
6200
6338
6190
6190
60e0
6060
60e0
33b0
1e18
0000
0000
0000
0000
ENDCHAR
STARTCHAR   27
ENCODING 39
SWIDTH 481 0
DWIDTH 13 0
BBX 13 27 0 -1
BITMAP
0000
0000
0000
0380
0380
0380
0380
0100
0100
0100
0000
0000
0000
0000
0000
0000
0000
0000
0000
0000
0000
0000
0000
0000
0000
0000
0000
ENDCHAR
STARTCHAR   28
ENCODING 40
SWIDTH 481 0
DWIDTH 13 0
BBX 13 27 0 -1
BITMAP
0000
0010
0020
0040
00c0
0080
0180
0180
0300
0300
0300
0300
0300
0300
0300
0300
0300
0300
0180
0180
0080
00c0
0040
0020
0010
0000
0000
ENDCHAR
STARTCHAR   29
ENCODING 41
SWIDTH 481 0
DWIDTH 13 0
BBX 13 27 0 -1
BITMAP
0000
2000
1000
0800
0c00
0400
0600
0600
0300
0300
0300
0300
0300
0300
0300
0300
0300
0300
0600
0600
0400
0c00
0800
1000
2000
0000
0000
ENDCHAR
STARTCHAR   2a
ENCODING 42
SWIDTH 481 0
DWIDTH 13 0
BBX 13 27 0 -1
BITMAP
0000
0000
0000
0000
0000
0200
0700
0700
6230
7270
3260
0880
0000
0000
0880
3260
7270
6230
0700
0700
0200
0000
0000
0000
0000
0000
0000
ENDCHAR
STARTCHAR   2b
ENCODING 43
SWIDTH 481 0
DWIDTH 13 0
BBX 13 27 0 -1
BITMAP
0000
0000
0000
0000
0000
0000
0000
0000
0300
0300
0300
0300
3ff0
3ff0
0300
0300
0300
0300
0000
0000
0000
0000
0000
0000
0000
0000
0000
ENDCHAR
STARTCHAR   2c
ENCODING 44
SWIDTH 481 0
DWIDTH 13 0
BBX 13 27 0 -1
BITMAP
0000
0000
0000
0000
0000
0000
0000
0000
0000
0000
0000
0000
0000
0000
0000
0000
0000
0000
0600
0f00
0f00
0700
0300
0600
0c00
0000
0000
ENDCHAR
STARTCHAR   2d
ENCODING 45
SWIDTH 481 0
DWIDTH 13 0
BBX 13 27 0 -1
BITMAP
0000
0000
0000
0000
0000
0000
0000
0000
0000
0000
0000
0000
3ff0
3ff0
0000
0000
0000
0000
0000
0000
0000
0000
0000
0000
0000
0000
0000
ENDCHAR
STARTCHAR   2e
ENCODING 46
SWIDTH 481 0
DWIDTH 13 0
BBX 13 27 0 -1
BITMAP
0000
0000
0000
0000
0000
0000
0000
0000
0000
0000
0000
0000
0000
0000
0000
0000
0000
0000
0000
0600
0f00
0f00
0600
0000
0000
0000
0000
ENDCHAR
STARTCHAR   2f
ENCODING 47
SWIDTH 481 0
DWIDTH 13 0
BBX 13 27 0 -1
BITMAP
0000
0000
0010
0030
0020
0060
0040
00c0
0080
0180
0100
0300
0200
0600
0400
0c00
0800
1800
1000
3000
2000
6000
4000
0000
0000
0000
0000
ENDCHAR
STARTCHAR   30
ENCODING 48
SWIDTH 481 0
DWIDTH 13 0
BBX 13 27 0 -1
BITMAP
0000
0000
0000
0700
0d80
18c0
18c0
3060
3060
6030
6030
6030
6030
6030
6030
6030
6030
3060
3060
18c0
18c0
0d80
0700
0000
0000
0000
0000
ENDCHAR
STARTCHAR   31
ENCODING 49
SWIDTH 481 0
DWIDTH 13 0
BBX 13 27 0 -1
BITMAP
0000
0000
0000
0300
0f00
3f00
0300
0300
0300
0300
0300
0300
0300
0300
0300
0300
0300
0300
0300
0300
0300
0300
1fe0
0000
0000
0000
0000
ENDCHAR
STARTCHAR   32
ENCODING 50
SWIDTH 481 0
DWIDTH 13 0
BBX 13 27 0 -1
BITMAP
0000
0000
0000
0f80
18c0
3060
7030
7030
3030
0030
0060
0060
00c0
0180
0300
0600
0c00
1800
3800
3010
7010
7ff0
7ff0
0000
0000
0000
0000
ENDCHAR
STARTCHAR   33
ENCODING 51
SWIDTH 481 0
DWIDTH 13 0
BBX 13 27 0 -1
BITMAP
0000
0000
0000
0780
1ce0
3870
3830
1830
0030
0060
00c0
0180
0700
01c0
0060
0030
0030
0030
3030
7030
7070
38e0
1f80
0000
0000
0000
0000
ENDCHAR
STARTCHAR   34
ENCODING 52
SWIDTH 481 0
DWIDTH 13 0
BBX 13 27 0 -1
BITMAP
0000
0000
0000
00c0
01c0
01c0
03c0
02c0
06c0
04c0
0cc0
08c0
18c0
10c0
30c0
20c0
60c0
7ff8
00c0
00c0
00c0
00c0
03f0
0000
0000
0000
0000
ENDCHAR
STARTCHAR   35
ENCODING 53
SWIDTH 481 0
DWIDTH 13 0
BBX 13 27 0 -1
BITMAP
0000
0000
0000
3fe0
3fe0
3000
3000
3000
3000
3000
3380
34c0
3860
2060
0030
0030
0030
0030
3030
7060
7060
38c0
1f80
0000
0000
0000
0000
ENDCHAR
STARTCHAR   36
ENCODING 54
SWIDTH 481 0
DWIDTH 13 0
BBX 13 27 0 -1
BITMAP
0000
0000
0000
0f80
19c0
30e0
30e0
60c0
6000
6000
6780
68c0
7060
6060
6030
6030
6030
6030
6030
3060
3060
18c0
0f80
0000
0000
0000
0000
ENDCHAR
STARTCHAR   37
ENCODING 55
SWIDTH 481 0
DWIDTH 13 0
BBX 13 27 0 -1
BITMAP
0000
0000
0000
3ff0
7ff0
6030
4020
4060
0040
00c0
0080
0180
0180
0300
0300
0300
0600
0600
0600
0600
0600
0600
0600
0000
0000
0000
0000
ENDCHAR
STARTCHAR   38
ENCODING 56
SWIDTH 481 0
DWIDTH 13 0
BBX 13 27 0 -1
BITMAP
0000
0000
0000
0f80
18c0
3060
3060
3060
3060
18c0
0d80
0700
0f80
18c0
3060
6030
6030
6030
6030
6030
3060
18c0
0f80
0000
0000
0000
0000
ENDCHAR
STARTCHAR   39
ENCODING 57
SWIDTH 481 0
DWIDTH 13 0
BBX 13 27 0 -1
BITMAP
0000
0000
0000
0f80
18c0
3060
3060
6030
6030
6030
6030
6030
3030
3070
18b0
0f30
0030
0030
1830
3860
3860
1cc0
0f80
0000
0000
0000
0000
ENDCHAR
STARTCHAR   3a
ENCODING 58
SWIDTH 481 0
DWIDTH 13 0
BBX 13 27 0 -1
BITMAP
0000
0000
0000
0000
0000
0000
0000
0300
0780
0780
0300
0000
0000
0000
0000
0300
0780
0780
0300
0000
0000
0000
0000
0000
0000
0000
0000
ENDCHAR
STARTCHAR   3b
ENCODING 59
SWIDTH 481 0
DWIDTH 13 0
BBX 13 27 0 -1
BITMAP
0000
0000
0000
0000
0000
0000
0000
0300
0780
0780
0300
0000
0000
0000
0000
0300
0780
0780
0380
0180
0300
0600
0000
0000
0000
0000
0000
ENDCHAR
STARTCHAR   3c
ENCODING 60
SWIDTH 481 0
DWIDTH 13 0
BBX 13 27 0 -1
BITMAP
0000
0000
0000
0000
0030
0060
00c0
0180
0300
0600
0c00
1800
3000
6000
3000
1800
0c00
0600
0300
0180
00c0
0060
0030
0000
0000
0000
0000
ENDCHAR
STARTCHAR   3d
ENCODING 61
SWIDTH 481 0
DWIDTH 13 0
BBX 13 27 0 -1
BITMAP
0000
0000
0000
0000
0000
0000
0000
0000
0000
3ff0
3ff0
0000
0000
0000
0000
3ff0
3ff0
0000
0000
0000
0000
0000
0000
0000
0000
0000
0000
ENDCHAR
STARTCHAR   3e
ENCODING 62
SWIDTH 481 0
DWIDTH 13 0
BBX 13 27 0 -1
BITMAP
0000
0000
0000
0000
6000
3000
1800
0c00
0600
0300
0180
00c0
0060
0030
0060
00c0
0180
0300
0600
0c00
1800
3000
6000
0000
0000
0000
0000
ENDCHAR
STARTCHAR   3f
ENCODING 63
SWIDTH 481 0
DWIDTH 13 0
BBX 13 27 0 -1
BITMAP
0000
0000
0000
07c0
0c60
1830
3830
3830
1030
0060
0060
00c0
0080
0180
0100
0100
0100
0100
0000
0000
0100
0380
0380
0100
0000
0000
0000
ENDCHAR
STARTCHAR   40
ENCODING 64
SWIDTH 481 0
DWIDTH 13 0
BBX 13 27 0 -1
BITMAP
0000
0000
0000
0f80
1040
2020
4010
4790
4cd0
58d0
58d0
58d0
58d0
58d0
58d0
58d0
5fd0
4e60
4000
4000
2010
1020
0fc0
0000
0000
0000
0000
ENDCHAR
STARTCHAR   41
ENCODING 65
SWIDTH 481 0
DWIDTH 13 0
BBX 13 27 0 -1
BITMAP
0000
0000
0000
0300
0300
0580
0580
0480
0480
0cc0
0cc0
0840
0840
1860
1860
1fe0
1860
1020
3030
3030
3030
3030
7878
0000
0000
0000
0000
ENDCHAR
STARTCHAR   42
ENCODING 66
SWIDTH 481 0
DWIDTH 13 0
BBX 13 27 0 -1
BITMAP
0000
0000
0000
7f00
3180
30c0
3060
3060
3060
3060
30c0
3180
3f00
31c0
3060
3060
3030
3030
3030
3060
3060
30c0
7f80
0000
0000
0000
0000
ENDCHAR
STARTCHAR   43
ENCODING 67
SWIDTH 481 0
DWIDTH 13 0
BBX 13 27 0 -1
BITMAP
0000
0000
0000
0f90
18f0
3070
3030
6010
6000
6000
6000
6000
6000
6000
6000
6000
6000
6000
6030
3030
3060
18c0
0f80
0000
0000
0000
0000
ENDCHAR
STARTCHAR   44
ENCODING 68
SWIDTH 481 0
DWIDTH 13 0
BBX 13 27 0 -1
BITMAP
0000
0000
0000
7f00
3180
30c0
3060
3060
3030
3030
3030
3030
3030
3030
3030
3030
3030
3030
3060
3060
30c0
3180
7f00
0000
0000
0000
0000
ENDCHAR
STARTCHAR   45
ENCODING 69
SWIDTH 481 0
DWIDTH 13 0
BBX 13 27 0 -1
BITMAP
0000
0000
0000
7ff0
3070
3030
3010
3010
3000
3080
3080
3180
3f80
3180
3080
3080
3000
3000
3010
3010
3030
3070
7ff0
0000
0000
0000
0000
ENDCHAR
STARTCHAR   46
ENCODING 70
SWIDTH 481 0
DWIDTH 13 0
BBX 13 27 0 -1
BITMAP
0000
0000
0000
7ff0
3070
3030
3010
3010
3000
3080
3080
3180
3f80
3180
3080
3080
3000
3000
3000
3000
3000
3000
7800
0000
0000
0000
0000
ENDCHAR
STARTCHAR   47
ENCODING 71
SWIDTH 481 0
DWIDTH 13 0
BBX 13 27 0 -1
BITMAP
0000
0000
0000
0f20
19e0
3060
3020
6020
6000
6000
6000
6000
60f0
6060
6060
6060
6060
6060
6060
30e0
31e0
1b60
0e60
0000
0000
0000
0000
ENDCHAR
STARTCHAR   48
ENCODING 72
SWIDTH 481 0
DWIDTH 13 0
BBX 13 27 0 -1
BITMAP
0000
0000
0000
78f0
3060
3060
3060
3060
3060
3060
3060
3060
3fe0
3060
3060
3060
3060
3060
3060
3060
3060
3060
78f0
0000
0000
0000
0000
ENDCHAR
STARTCHAR   49
ENCODING 73
SWIDTH 481 0
DWIDTH 13 0
BBX 13 27 0 -1
BITMAP
0000
0000
0000
1fe0
0300
0300
0300
0300
0300
0300
0300
0300
0300
0300
0300
0300
0300
0300
0300
0300
0300
0300
1fe0
0000
0000
0000
0000
ENDCHAR
STARTCHAR   4a
ENCODING 74
SWIDTH 481 0
DWIDTH 13 0
BBX 13 27 0 -1
BITMAP
0000
0000
0000
03f0
00c0
00c0
00c0
00c0
00c0
00c0
00c0
00c0
00c0
00c0
00c0
00c0
00c0
30c0
78c0
70c0
60c0
3380
1f00
0000
0000
0000
0000
ENDCHAR
STARTCHAR   4b
ENCODING 75
SWIDTH 481 0
DWIDTH 13 0
BBX 13 27 0 -1
BITMAP
0000
0000
0000
79f0
30c0
30c0
3180
3180
3300
3300
3600
3600
3e00
3e00
3b00
3b00
3180
3180
30c0
30c0
3060
3060
78f8
0000
0000
0000
0000
ENDCHAR
STARTCHAR   4c
ENCODING 76
SWIDTH 481 0
DWIDTH 13 0
BBX 13 27 0 -1
BITMAP
0000
0000
0000
7800
3000
3000
3000
3000
3000
3000
3000
3000
3000
3000
3000
3000
3000
3000
3010
3010
3030
3070
7ff0
0000
0000
0000
0000
ENDCHAR
STARTCHAR   4d
ENCODING 77
SWIDTH 481 0
DWIDTH 13 0
BBX 13 27 0 -1
BITMAP
0000
0000
0000
7038
3030
3030
3030
3870
3870
3870
3870
3cf0
34b0
34b0
37b0
3330
3330
3330
3030
3030
3030
3030
7878
0000
0000
0000
0000
ENDCHAR
STARTCHAR   4e
ENCODING 78
SWIDTH 481 0
DWIDTH 13 0
BBX 13 27 0 -1
BITMAP
0000
0000
0000
70f0
3060
3060
3860
3860
3860
3c60
3460
3660
3260
3360
3160
31e0
30e0
30e0
30e0
3060
3060
3020
7820
0000
0000
0000
0000
ENDCHAR
STARTCHAR   4f
ENCODING 79
SWIDTH 481 0
DWIDTH 13 0
BBX 13 27 0 -1
BITMAP
0000
0000
0000
0f80
18c0
3060
6030
6030
6030
6030
6030
6030
6030
6030
6030
6030
6030
6030
6030
6030
3060
18c0
0f80
0000
0000
0000
0000
ENDCHAR
STARTCHAR   50
ENCODING 80
SWIDTH 481 0
DWIDTH 13 0
BBX 13 27 0 -1
BITMAP
0000
0000
0000
7f00
31c0
3060
3060
3030
3030
3030
3060
3060
31c0
3f00
3000
3000
3000
3000
3000
3000
3000
3000
7800
0000
0000
0000
0000
ENDCHAR
STARTCHAR   51
ENCODING 81
SWIDTH 481 0
DWIDTH 13 0
BBX 13 27 0 -1
BITMAP
0000
0000
0000
0f80
18c0
3060
6030
6030
6030
6030
6030
6030
6030
6030
6030
6030
6030
6030
6630
6330
31b0
18e0
0f60
0038
0000
0000
0000
ENDCHAR
STARTCHAR   52
ENCODING 82
SWIDTH 481 0
DWIDTH 13 0
BBX 13 27 0 -1
BITMAP
0000
0000
0000
7f00
31c0
30c0
3060
3060
3060
3060
30c0
31c0
3f00
3600
3600
3300
3300
3180
3180
30c0
30c0
3060
78f0
0000
0000
0000
0000
ENDCHAR
STARTCHAR   53
ENCODING 83
SWIDTH 481 0
DWIDTH 13 0
BBX 13 27 0 -1
BITMAP
0000
0000
0000
0f20
39e0
60e0
6060
6020
7000
3800
1c00
0e00
0700
0380
01c0
00e0
0070
4030
6030
7030
7860
6cc0
4780
0000
0000
0000
0000
ENDCHAR
STARTCHAR   54
ENCODING 84
SWIDTH 481 0
DWIDTH 13 0
BBX 13 27 0 -1
BITMAP
0000
0000
0000
7ff8
7338
6318
4308
4308
0300
0300
0300
0300
0300
0300
0300
0300
0300
0300
0300
0300
0300
0300
0fc0
0000
0000
0000
0000
ENDCHAR
STARTCHAR   55
ENCODING 85
SWIDTH 481 0
DWIDTH 13 0
BBX 13 27 0 -1
BITMAP
0000
0000
0000
78f0
3060
3060
3060
3060
3060
3060
3060
3060
3060
3060
3060
3060
3060
3060
3060
3060
3060
18c0
0f80
0000
0000
0000
0000
ENDCHAR
STARTCHAR   56
ENCODING 86
SWIDTH 481 0
DWIDTH 13 0
BBX 13 27 0 -1
BITMAP
0000
0000
0000
78f0
3060
3060
3060
3060
3060
18c0
18c0
18c0
18c0
18c0
18c0
0d80
0d80
0d80
0d80
0700
0700
0700
0200
0000
0000
0000
0000
ENDCHAR
STARTCHAR   57
ENCODING 87
SWIDTH 481 0
DWIDTH 13 0
BBX 13 27 0 -1
BITMAP
0000
0000
0000
7878
3030
3030
3030
3030
3030
3030
3030
1320
1320
1320
1320
1320
1b60
1b60
1b60
0cc0
0cc0
0cc0
0cc0
0000
0000
0000
0000
ENDCHAR
STARTCHAR   58
ENCODING 88
SWIDTH 481 0
DWIDTH 13 0
BBX 13 27 0 -1
BITMAP
0000
0000
0000
7878
3030
3030
1860
1860
0cc0
0cc0
0780
0780
0300
0300
0780
0780
0cc0
0cc0
1860
1860
3030
3030
7878
0000
0000
0000
0000
ENDCHAR
STARTCHAR   59
ENCODING 89
SWIDTH 481 0
DWIDTH 13 0
BBX 13 27 0 -1
BITMAP
0000
0000
0000
7878
3030
3030
1860
1860
1860
0cc0
0cc0
0cc0
0780
0780
0300
0300
0300
0300
0300
0300
0300
0300
0fc0
0000
0000
0000
0000
ENDCHAR
STARTCHAR   5a
ENCODING 90
SWIDTH 481 0
DWIDTH 13 0
BBX 13 27 0 -1
BITMAP
0000
0000
0000
7fe0
7060
60e0
40c0
4180
0180
0300
0300
0600
0600
0c00
0c00
1800
1800
3000
3010
6010
6030
6070
7ff0
0000
0000
0000
0000
ENDCHAR
STARTCHAR   5b
ENCODING 91
SWIDTH 481 0
DWIDTH 13 0
BBX 13 27 0 -1
BITMAP
0000
03f0
0200
0200
0200
0200
0200
0200
0200
0200
0200
0200
0200
0200
0200
0200
0200
0200
0200
0200
0200
0200
0200
0200
03f0
0000
0000
ENDCHAR
STARTCHAR   5c
ENCODING 92
SWIDTH 481 0
DWIDTH 13 0
BBX 13 27 0 -1
BITMAP
0000
0000
0000
7878
3030
1860
1860
1860
0cc0
0cc0
0780
0780
7ff8
0300
0300
0300
0300
7ff8
0300
0300
0300
0300
0fc0
0000
0000
0000
0000
ENDCHAR
STARTCHAR   5d
ENCODING 93
SWIDTH 481 0
DWIDTH 13 0
BBX 13 27 0 -1
BITMAP
0000
3f00
0100
0100
0100
0100
0100
0100
0100
0100
0100
0100
0100
0100
0100
0100
0100
0100
0100
0100
0100
0100
0100
0100
3f00
0000
0000
ENDCHAR
STARTCHAR   5e
ENCODING 94
SWIDTH 481 0
DWIDTH 13 0
BBX 13 27 0 -1
BITMAP
0000
0000
0300
0780
0cc0
1860
3030
2010
0000
0000
0000
0000
0000
0000
0000
0000
0000
0000
0000
0000
0000
0000
0000
0000
0000
0000
0000
ENDCHAR
STARTCHAR   5f
ENCODING 95
SWIDTH 481 0
DWIDTH 13 0
BBX 13 27 0 -1
BITMAP
0000
0000
0000
0000
0000
0000
0000
0000
0000
0000
0000
0000
0000
0000
0000
0000
0000
0000
0000
0000
0000
0000
0000
0000
7ff8
0000
0000
ENDCHAR
STARTCHAR   60
ENCODING 96
SWIDTH 481 0
DWIDTH 13 0
BBX 13 27 0 -1
BITMAP
0000
0c00
1e00
0780
00e0
0000
0000
0000
0000
0000
0000
0000
0000
0000
0000
0000
0000
0000
0000
0000
0000
0000
0000
0000
0000
0000
0000
ENDCHAR
STARTCHAR   61
ENCODING 97
SWIDTH 481 0
DWIDTH 13 0
BBX 13 27 0 -1
BITMAP
0000
0000
0000
0000
0000
0000
0000
0000
0000
0000
1f80
30c0
7860
3060
0060
07e0
1c60
3060
6060
6060
6060
71e0
1f30
0000
0000
0000
0000
ENDCHAR
STARTCHAR   62
ENCODING 98
SWIDTH 481 0
DWIDTH 13 0
BBX 13 27 0 -1
BITMAP
0000
0000
0000
7000
3000
3000
3000
3000
3000
3000
3780
3cc0
3860
3060
3030
3030
3030
3030
3030
3060
3860
3cc0
6780
0000
0000
0000
0000
ENDCHAR
STARTCHAR   63
ENCODING 99
SWIDTH 481 0
DWIDTH 13 0
BBX 13 27 0 -1
BITMAP
0000
0000
0000
0000
0000
0000
0000
0000
0000
0000
0f80
18e0
3070
30f0
6060
6000
6000
6000
6000
3000
3030
1860
0fc0
0000
0000
0000
0000
ENDCHAR
STARTCHAR   64
ENCODING 100
SWIDTH 481 0
DWIDTH 13 0
BBX 13 27 0 -1
BITMAP
0000
0000
0000
0070
0030
0030
0030
0030
0030
0030
0fb0
18f0
3070
3030
6030
6030
6030
6030
6030
3030
3070
18f0
0f90
0000
0000
0000
0000
ENDCHAR
STARTCHAR   65
ENCODING 101
SWIDTH 481 0
DWIDTH 13 0
BBX 13 27 0 -1
BITMAP
0000
0000
0000
0000
0000
0000
0000
0000
0000
0000
0f80
18c0
3060
3060
6030
6030
7ff0
6000
6000
3000
3030
1860
0fc0
0000
0000
0000
0000
ENDCHAR
STARTCHAR   66
ENCODING 102
SWIDTH 481 0
DWIDTH 13 0
BBX 13 27 0 -1
BITMAP
0000
0000
0000
03e0
0670
0c70
0c20
0c00
0c00
0c00
7f80
0c00
0c00
0c00
0c00
0c00
0c00
0c00
0c00
0c00
0c00
0c00
3f00
0000
0000
0000
0000
ENDCHAR
STARTCHAR   67
ENCODING 103
SWIDTH 481 0
DWIDTH 13 0
BBX 13 27 0 -1
BITMAP
0000
0000
0000
0000
0000
0000
0000
0000
0000
0000
1f30
31f0
60c0
60c0
60c0
3180
1f00
3000
3c00
67c0
60e0
6030
6030
3060
1fc0
0000
0000
ENDCHAR
STARTCHAR   68
ENCODING 104
SWIDTH 481 0
DWIDTH 13 0
BBX 13 27 0 -1
BITMAP
0000
0000
0000
7000
3000
3000
3000
3000
3000
3000
3380
36c0
3c60
3860
3060
3060
3060
3060
3060
3060
3060
3060
78f0
0000
0000
0000
0000
ENDCHAR
STARTCHAR   69
ENCODING 105
SWIDTH 481 0
DWIDTH 13 0
BBX 13 27 0 -1
BITMAP
0000
0000
0000
0300
0780
0780
0300
0000
0000
0000
0f00
0300
0300
0300
0300
0300
0300
0300
0300
0300
0300
0300
0fc0
0000
0000
0000
0000
ENDCHAR
STARTCHAR   6a
ENCODING 106
SWIDTH 481 0
DWIDTH 13 0
BBX 13 27 0 -1
BITMAP
0000
0000
0000
0180
03c0
03c0
0180
0000
0000
0000
03c0
00c0
00c0
00c0
00c0
00c0
00c0
00c0
00c0
00c0
30c0
78c0
70c0
3180
1f00
0000
0000
ENDCHAR
STARTCHAR   6b
ENCODING 107
SWIDTH 481 0
DWIDTH 13 0
BBX 13 27 0 -1
BITMAP
0000
0000
0000
7000
3000
3000
3000
3000
3000
3000
31f0
30c0
3180
3300
3600
3f00
3b00
3180
3180
30c0
30c0
3060
78f0
0000
0000
0000
0000
ENDCHAR
STARTCHAR   6c
ENCODING 108
SWIDTH 481 0
DWIDTH 13 0
BBX 13 27 0 -1
BITMAP
0000
0000
0000
0f00
0300
0300
0300
0300
0300
0300
0300
0300
0300
0300
0300
0300
0300
0300
0300
0300
0300
0300
0fc0
0000
0000
0000
0000
ENDCHAR
STARTCHAR   6d
ENCODING 109
SWIDTH 481 0
DWIDTH 13 0
BBX 13 27 0 -1
BITMAP
0000
0000
0000
0000
0000
0000
0000
0000
0000
0000
76e0
3ff0
3330
3330
3330
3330
3330
3330
3330
3330
3330
3330
7bb8
0000
0000
0000
0000
ENDCHAR
STARTCHAR   6e
ENCODING 110
SWIDTH 481 0
DWIDTH 13 0
BBX 13 27 0 -1
BITMAP
0000
0000
0000
0000
0000
0000
0000
0000
0000
0000
7380
36c0
3c60
3860
3060
3060
3060
3060
3060
3060
3060
3060
78f0
0000
0000
0000
0000
ENDCHAR
STARTCHAR   6f
ENCODING 111
SWIDTH 481 0
DWIDTH 13 0
BBX 13 27 0 -1
BITMAP
0000
0000
0000
0000
0000
0000
0000
0000
0000
0000
0f80
18c0
3060
3060
6030
6030
6030
6030
6030
3060
3060
18c0
0f80
0000
0000
0000
0000
ENDCHAR
STARTCHAR   70
ENCODING 112
SWIDTH 481 0
DWIDTH 13 0
BBX 13 27 0 -1
BITMAP
0000
0000
0000
0000
0000
0000
0000
0000
0000
0000
7780
3cc0
3860
3060
3030
3030
3030
3060
3860
3cc0
3780
3000
3000
3000
7800
0000
0000
ENDCHAR
STARTCHAR   71
ENCODING 113
SWIDTH 481 0
DWIDTH 13 0
BBX 13 27 0 -1
BITMAP
0000
0000
0000
0000
0000
0000
0000
0000
0000
0000
0f20
19e0
30e0
3060
6060
6060
6060
3060
30e0
19e0
0f60
0060
0060
0060
00f0
0000
0000
ENDCHAR
STARTCHAR   72
ENCODING 114
SWIDTH 481 0
DWIDTH 13 0
BBX 13 27 0 -1
BITMAP
0000
0000
0000
0000
0000
0000
0000
0000
0000
0000
73c0
3660
3c70
3860
3000
3000
3000
3000
3000
3000
3000
3000
7800
0000
0000
0000
0000
ENDCHAR
STARTCHAR   73
ENCODING 115
SWIDTH 481 0
DWIDTH 13 0
BBX 13 27 0 -1
BITMAP
0000
0000
0000
0000
0000
0000
0000
0000
0000
0000
1f80
30e0
6060
6020
7000
3c00
0f80
01e0
0070
4030
6030
7060
1fc0
0000
0000
0000
0000
ENDCHAR
STARTCHAR   74
ENCODING 116
SWIDTH 481 0
DWIDTH 13 0
BBX 13 27 0 -1
BITMAP
0000
0000
0000
0000
0000
0400
0c00
0c00
0c00
0c00
7fe0
0c00
0c00
0c00
0c00
0c00
0c00
0c00
0c00
0c30
0c30
0660
03c0
0000
0000
0000
0000
ENDCHAR
STARTCHAR   75
ENCODING 117
SWIDTH 481 0
DWIDTH 13 0
BBX 13 27 0 -1
BITMAP
0000
0000
0000
0000
0000
0000
0000
0000
0000
0000
70e0
3060
3060
3060
3060
3060
3060
3060
3060
30e0
31e0
1b60
0e70
0000
0000
0000
0000
ENDCHAR
STARTCHAR   76
ENCODING 118
SWIDTH 481 0
DWIDTH 13 0
BBX 13 27 0 -1
BITMAP
0000
0000
0000
0000
0000
0000
0000
0000
0000
0000
78f0
3060
3060
18c0
18c0
18c0
0d80
0d80
0d80
0700
0700
0700
0200
0000
0000
0000
0000
ENDCHAR
STARTCHAR   77
ENCODING 119
SWIDTH 481 0
DWIDTH 13 0
BBX 13 27 0 -1
BITMAP
0000
0000
0000
0000
0000
0000
0000
0000
0000
0000
7878
3030
3030
3330
3330
1b60
1b60
1b60
1fe0
0cc0
0cc0
0cc0
0cc0
0000
0000
0000
0000
ENDCHAR
STARTCHAR   78
ENCODING 120
SWIDTH 481 0
DWIDTH 13 0
BBX 13 27 0 -1
BITMAP
0000
0000
0000
0000
0000
0000
0000
0000
0000
0000
78f0
3060
3060
18c0
0d80
0700
0700
0700
0d80
18c0
3060
3060
78f0
0000
0000
0000
0000
ENDCHAR
STARTCHAR   79
ENCODING 121
SWIDTH 481 0
DWIDTH 13 0
BBX 13 27 0 -1
BITMAP
0000
0000
0000
0000
0000
0000
0000
0000
0000
0000
78f0
3060
1860
18c0
0cc0
0cc0
0780
0780
0380
0300
0300
0300
6600
6600
3c00
0000
0000
ENDCHAR
STARTCHAR   7a
ENCODING 122
SWIDTH 481 0
DWIDTH 13 0
BBX 13 27 0 -1
BITMAP
0000
0000
0000
0000
0000
0000
0000
0000
0000
0000
3ff0
2030
2060
00c0
0180
0300
0600
0c00
1800
3010
6010
6030
7ff0
0000
0000
0000
0000
ENDCHAR
STARTCHAR   7b
ENCODING 123
SWIDTH 481 0
DWIDTH 13 0
BBX 13 27 0 -1
BITMAP
0000
00f0
0180
0300
0300
0300
0300
0300
0300
0300
0300
0600
0c00
0c00
0600
0300
0300
0300
0300
0300
0300
0300
0300
0180
00f0
0000
0000
ENDCHAR
STARTCHAR   7c
ENCODING 124
SWIDTH 481 0
DWIDTH 13 0
BBX 13 27 0 -1
BITMAP
0000
0300
0300
0300
0300
0300
0300
0300
0300
0300
0300
0300
0300
0300
0300
0300
0300
0300
0300
0300
0300
0300
0300
0300
0300
0000
0000
ENDCHAR
STARTCHAR   7d
ENCODING 125
SWIDTH 481 0
DWIDTH 13 0
BBX 13 27 0 -1
BITMAP
0000
3c00
0600
0300
0300
0300
0300
0300
0300
0300
0300
0180
00c0
00c0
0180
0300
0300
0300
0300
0300
0300
0300
0300
0600
3c00
0000
0000
ENDCHAR
STARTCHAR   7e
ENCODING 126
SWIDTH 481 0
DWIDTH 13 0
BBX 13 27 0 -1
BITMAP
0000
7ff8
0000
0000
0000
0000
0000
0000
0000
0000
0000
0000
0000
0000
0000
0000
0000
0000
0000
0000
0000
0000
0000
0000
0000
0000
0000
ENDCHAR
STARTCHAR   7f
ENCODING 127
SWIDTH 481 0
DWIDTH 13 0
BBX 13 27 0 -1
BITMAP
0000
0000
0000
0000
0000
0000
0000
0000
0000
0000
0000
0000
0000
0000
0000
0000
0000
0000
0000
0000
0000
0000
0000
0000
0000
0000
0000
ENDCHAR
STARTCHAR   a1
ENCODING 161
SWIDTH 481 0
DWIDTH 13 0
BBX 13 27 0 -1
BITMAP
0000
0000
0000
0000
0000
0000
0000
0000
0000
0000
0000
0000
0000
0000
0000
0000
0000
0f00
1080
2040
2040
2040
2040
1080
0f00
0000
0000
ENDCHAR
STARTCHAR   a2
ENCODING 162
SWIDTH 481 0
DWIDTH 13 0
BBX 13 27 0 -1
BITMAP
0000
07f0
0400
0400
0400
0400
0400
0400
0400
0400
0400
0400
0400
0000
0000
0000
0000
0000
0000
0000
0000
0000
0000
0000
0000
0000
0000
ENDCHAR
STARTCHAR   a3
ENCODING 163
SWIDTH 481 0
DWIDTH 13 0
BBX 13 27 0 -1
BITMAP
0000
0000
0000
0000
0000
0000
0000
0000
0000
0000
0000
0000
0000
0080
0080
0080
0080
0080
0080
0080
0080
0080
0080
0080
3f80
0000
0000
ENDCHAR
STARTCHAR   a4
ENCODING 164
SWIDTH 481 0
DWIDTH 13 0
BBX 13 27 0 -1
BITMAP
0000
0000
0000
0000
0000
0000
0000
0000
0000
0000
0000
0000
0000
0000
0000
0000
0000
0000
3000
0c00
0600
0300
0380
0180
0180
0000
0000
ENDCHAR
STARTCHAR   a5
ENCODING 165
SWIDTH 481 0
DWIDTH 13 0
BBX 13 27 0 -1
BITMAP
0000
0000
0000
0000
0000
0000
0000
0000
0000
0000
0300
0780
0fc0
0fc0
0780
0300
0000
0000
0000
0000
0000
0000
0000
0000
0000
0000
0000
ENDCHAR
STARTCHAR   a6
ENCODING 166
SWIDTH 481 0
DWIDTH 13 0
BBX 13 27 0 -1
BITMAP
0000
0000
0000
0000
0020
41f0
3e38
1030
0030
0030
0030
41f0
3e30
1030
0060
0060
0060
0060
00c0
00c0
0080
0180
0600
0000
0000
0000
0000
ENDCHAR
STARTCHAR   a7
ENCODING 167
SWIDTH 481 0
DWIDTH 13 0
BBX 13 27 0 -1
BITMAP
0000
0000
0000
0000
0000
0000
0000
0000
0000
0020
41f0
3e38
1030
0020
0460
0340
0380
0300
0300
0600
0400
0c00
1000
0000
0000
0000
0000
ENDCHAR
STARTCHAR   a8
ENCODING 168
SWIDTH 481 0
DWIDTH 13 0
BBX 13 27 0 -1
BITMAP
0000
0000
0000
0000
0000
0000
0000
0000
0020
0030
0060
00c0
0180
0300
0600
0d00
1980
6180
0180
0180
0180
01c0
0180
0000
0000
0000
0000
ENDCHAR
STARTCHAR   a9
ENCODING 169
SWIDTH 481 0
DWIDTH 13 0
BBX 13 27 0 -1
BITMAP
0000
0000
0000
0000
0000
0000
0000
0000
0800
0600
0600
47e0
3c70
3060
3060
3060
00c0
00c0
0180
0180
0300
0600
0800
0000
0000
0000
0000
ENDCHAR
STARTCHAR   aa
ENCODING 170
SWIDTH 481 0
DWIDTH 13 0
BBX 13 27 0 -1
BITMAP
0000
0000
0000
0000
0000
0000
0000
0000
0000
0000
0040
21e0
1f10
0b00
0300
0300
0300
0300
0300
0320
43f0
3f08
1000
0000
0000
0000
0000
ENDCHAR
STARTCHAR   ab
ENCODING 171
SWIDTH 481 0
DWIDTH 13 0
BBX 13 27 0 -1
BITMAP
0000
0000
0000
0000
0000
0000
0000
0000
0000
0180
00c0
00c0
20f0
1fc8
08c0
01c0
03c0
06c0
0cc0
18c0
60c0
03c0
00c0
0000
0000
0000
0000
ENDCHAR
STARTCHAR   ac
ENCODING 172
SWIDTH 481 0
DWIDTH 13 0
BBX 13 27 0 -1
BITMAP
0000
0000
0000
0000
0000
0000
0000
0000
0000
1800
0c20
0cf0
4f30
3e30
2620
0660
0680
0600
0300
0300
0300
0380
0300
0000
0000
0000
0000
ENDCHAR
STARTCHAR   ad
ENCODING 173
SWIDTH 481 0
DWIDTH 13 0
BBX 13 27 0 -1
BITMAP
0000
0000
0000
0000
0000
0000
0000
0000
0000
0000
0100
2380
1dc0
0980
0180
0180
0300
0300
0320
43f0
3e08
1000
0000
0000
0000
0000
0000
ENDCHAR
STARTCHAR   ae
ENCODING 174
SWIDTH 481 0
DWIDTH 13 0
BBX 13 27 0 -1
BITMAP
0000
0000
0000
0000
0000
0000
0000
0000
0000
0040
11e0
0e70
0460
0060
0060
11e0
0e60
04c0
00c0
00c0
23c0
1cc0
0800
0000
0000
0000
0000
ENDCHAR
STARTCHAR   af
ENCODING 175
SWIDTH 481 0
DWIDTH 13 0
BBX 13 27 0 -1
BITMAP
0000
0000
0000
0000
0000
0000
0000
0000
0000
0460
4230
2338
3330
3330
3030
0060
0060
00c0
00c0
0180
0300
0600
0800
0000
0000
0000
0000
ENDCHAR
STARTCHAR   b0
ENCODING 176
SWIDTH 481 0
DWIDTH 13 0
BBX 13 27 0 -1
BITMAP
0000
0000
0000
0000
0000
0000
0000
0000
0000
0000
40e0
3ff0
1818
0000
0000
0000
0000
0000
0000
0000
0000
0000
0000
0000
0000
0000
0000
ENDCHAR
STARTCHAR   b1
ENCODING 177
SWIDTH 481 0
DWIDTH 13 0
BBX 13 27 0 -1
BITMAP
0000
0000
0000
0000
0020
43f0
7c38
2030
0030
0c60
0660
06c0
06c0
0780
0600
0600
0600
0c00
0c00
0800
1800
1000
2000
0000
0000
0000
0000
ENDCHAR
STARTCHAR   b2
ENCODING 178
SWIDTH 481 0
DWIDTH 13 0
BBX 13 27 0 -1
BITMAP
0000
0000
0000
0000
0010
0018
0018
0038
0030
0060
00c0
0180
0380
06c0
18e0
60c0
00c0
00c0
00c0
00c0
00c0
00e0
00c0
0000
0000
0000
0000
ENDCHAR
STARTCHAR   b3
ENCODING 179
SWIDTH 481 0
DWIDTH 13 0
BBX 13 27 0 -1
BITMAP
0000
0000
0000
0000
0600
0380
0300
0320
43f0
3e38
2030
3030
3030
3030
3860
3060
0060
0060
00c0
00c0
0180
0300
0400
0000
0000
0000
0000
ENDCHAR
STARTCHAR   b4
ENCODING 180
SWIDTH 481 0
DWIDTH 13 0
BBX 13 27 0 -1
BITMAP
0000
0000
0000
0000
0000
0040
20e0
1f10
0a00
0380
0300
0300
0300
0300
0300
0300
0300
0300
0320
43f0
3f08
1000
0000
0000
0000
0000
0000
ENDCHAR
STARTCHAR   b5
ENCODING 181
SWIDTH 481 0
DWIDTH 13 0
BBX 13 27 0 -1
BITMAP
0000
0000
0000
0000
0300
01c0
0180
01a0
41f0
7f88
2180
0380
0380
0780
0580
0d80
0980
1980
3180
4180
0180
0780
0180
0000
0000
0000
0000
ENDCHAR
STARTCHAR   b6
ENCODING 182
SWIDTH 481 0
DWIDTH 13 0
BBX 13 27 0 -1
BITMAP
0000
0000
0000
0600
0300
0300
0300
0330
43f8
7f38
2330
0330
0330
0330
0630
0630
0630
0c30
0c70
1860
12e0
21c0
4080
0000
0000
0000
0000
ENDCHAR
STARTCHAR   b7
ENCODING 183
SWIDTH 481 0
DWIDTH 13 0
BBX 13 27 0 -1
BITMAP
0000
0000
0000
0000
0c00
1e00
0600
0640
47e0
3f30
1300
0300
0300
0320
43f0
7f98
2180
0180
0180
0180
0180
01c0
0180
0000
0000
0000
0000
ENDCHAR
STARTCHAR   b8
ENCODING 184
SWIDTH 481 0
DWIDTH 13 0
BBX 13 27 0 -1
BITMAP
0000
0000
0000
1800
0c00
0c00
0c20
19f0
1e38
1830
1830
3030
3060
4060
0060
0060
00c0
00c0
0180
0300
0300
0600
1800
0000
0000
0000
0000
ENDCHAR
STARTCHAR   b9
ENCODING 185
SWIDTH 481 0
DWIDTH 13 0
BBX 13 27 0 -1
BITMAP
0000
0000
0000
1800
0e00
0c00
0c00
0c20
0df0
0f18
1980
19c0
3180
2180
4180
0180
0180
0180
0300
0300
0200
0600
0800
0000
0000
0000
0000
ENDCHAR
STARTCHAR   ba
ENCODING 186
SWIDTH 481 0
DWIDTH 13 0
BBX 13 27 0 -1
BITMAP
0000
0000
0000
0000
0000
0000
0020
21f0
3e38
1030
0030
0030
0030
0030
0030
0060
0060
0060
0060
4070
7ff8
2000
0000
0000
0000
0000
0000
ENDCHAR
STARTCHAR   bb
ENCODING 187
SWIDTH 481 0
DWIDTH 13 0
BBX 13 27 0 -1
BITMAP
0000
0000
0000
0000
0180
18e0
0ec0
0cc0
0cd0
4ff8
7cc8
2cc0
0cc0
0cc0
0cc0
1cc0
08c0
00c0
00c0
0180
0180
0300
0e00
0000
0000
0000
0000
ENDCHAR
STARTCHAR   bc
ENCODING 188
SWIDTH 481 0
DWIDTH 13 0
BBX 13 27 0 -1
BITMAP
0000
0000
0000
0800
0600
0300
0380
0188
0008
7008
1808
0e08
0618
0018
0030
0030
0060
00c0
01c0
2780
3f00
1e00
0c00
0000
0000
0000
0000
ENDCHAR
STARTCHAR   bd
ENCODING 189
SWIDTH 481 0
DWIDTH 13 0
BBX 13 27 0 -1
BITMAP
0000
0000
0000
0000
0000
0000
0020
21f0
1e38
0830
0070
0060
0060
00e0
00c0
0180
01c0
0360
0630
0c30
1818
3038
4018
0000
0000
0000
0000
ENDCHAR
STARTCHAR   be
ENCODING 190
SWIDTH 481 0
DWIDTH 13 0
BBX 13 27 0 -1
BITMAP
0000
0000
0000
0000
1800
0e00
0c00
0c20
0cf0
4f38
7c30
2c30
0c60
0cc0
0c00
0c00
0c00
0c00
0c00
0c10
0ff8
07f0
0000
0000
0000
0000
0000
ENDCHAR
STARTCHAR   bf
ENCODING 191
SWIDTH 481 0
DWIDTH 13 0
BBX 13 27 0 -1
BITMAP
0000
0000
0000
0000
0000
0000
4060
6030
3038
3030
3830
3030
0060
0060
0060
0060
00c0
00c0
0180
0300
0200
0400
1800
0000
0000
0000
0000
ENDCHAR
STARTCHAR   c0
ENCODING 192
SWIDTH 481 0
DWIDTH 13 0
BBX 13 27 0 -1
BITMAP
0000
0000
0000
0c00
0600
0600
0c20
09f0
1e38
1030
2030
4030
0060
1860
06c0
03c0
01e0
01f8
0338
0300
0600
0c00
3000
0000
0000
0000
0000
ENDCHAR
STARTCHAR   c1
ENCODING 193
SWIDTH 481 0
DWIDTH 13 0
BBX 13 27 0 -1
BITMAP
0000
0000
0000
0000
0060
0070
00e0
0380
1d00
0180
0190
41f8
3f88
1180
0180
0180
0180
0180
0300
0300
0600
0c00
1000
0000
0000
0000
0000
ENDCHAR
STARTCHAR   c2
ENCODING 194
SWIDTH 481 0
DWIDTH 13 0
BBX 13 27 0 -1
BITMAP
0000
0000
0000
0000
0800
0460
4430
2638
2630
3330
3330
1830
1830
0060
0060
0060
00c0
00c0
0180
0180
0300
0600
0800
0000
0000
0000
0000
ENDCHAR
STARTCHAR   c3
ENCODING 195
SWIDTH 481 0
DWIDTH 13 0
BBX 13 27 0 -1
BITMAP
0000
0000
0000
0000
0020
21f0
1e10
0800
0000
0010
41f8
3f08
11c0
0180
0180
0180
0180
0180
0180
0300
0300
0600
0800
0000
0000
0000
0000
ENDCHAR
STARTCHAR   c4
ENCODING 196
SWIDTH 481 0
DWIDTH 13 0
BBX 13 27 0 -1
BITMAP
0000
0000
0000
0000
1800
0c00
0e00
0c00
0c00
0c00
0c00
0f00
0d80
0ce0
0c70
0c20
0c00
0c00
0c00
0c00
0c00
1c00
0c00
0000
0000
0000
0000
ENDCHAR
STARTCHAR   c5
ENCODING 197
SWIDTH 481 0
DWIDTH 13 0
BBX 13 27 0 -1
BITMAP
0000
0000
0000
0000
0300
0180
01c0
0180
0190
41f8
3f08
1180
0180
0180
0180
0180
0180
0180
0300
0300
0600
0c00
1000
0000
0000
0000
0000
ENDCHAR
STARTCHAR   c6
ENCODING 198
SWIDTH 481 0
DWIDTH 13 0
BBX 13 27 0 -1
BITMAP
0000
0000
0000
0000
0000
0000
0020
21f0
3e10
1000
0000
0000
0000
0000
0000
0000
0000
0010
41f8
3e08
1800
0000
0000
0000
0000
0000
0000
ENDCHAR
STARTCHAR   c7
ENCODING 199
SWIDTH 481 0
DWIDTH 13 0
BBX 13 27 0 -1
BITMAP
0000
0000
0000
0000
0000
0000
0020
21f0
1e38
0830
0030
0030
1860
0660
03c0
01c0
01f0
01b8
0318
0300
0600
0c00
3000
0000
0000
0000
0000
ENDCHAR
STARTCHAR   c8
ENCODING 200
SWIDTH 481 0
DWIDTH 13 0
BBX 13 27 0 -1
BITMAP
0000
0000
0000
0e00
0380
0180
0000
0010
21f8
1e30
0830
0060
00c0
0180
0660
1b38
6318
0300
0300
0300
0300
0700
0300
0000
0000
0000
0000
ENDCHAR
STARTCHAR   c9
ENCODING 201
SWIDTH 481 0
DWIDTH 13 0
BBX 13 27 0 -1
BITMAP
0000
0000
0000
0000
0070
0030
0038
0030
0030
0030
0060
0060
0060
00c0
00c0
0180
0180
0300
0600
0c00
1800
6000
0000
0000
0000
0000
0000
ENDCHAR
STARTCHAR   ca
ENCODING 202
SWIDTH 481 0
DWIDTH 13 0
BBX 13 27 0 -1
BITMAP
0000
0000
0000
0000
0000
0000
0c80
06c0
0640
0660
0660
0630
0630
0c30
0c18
0c18
0c18
1818
1018
3018
4000
0000
0000
0000
0000
0000
0000
ENDCHAR
STARTCHAR   cb
ENCODING 203
SWIDTH 481 0
DWIDTH 13 0
BBX 13 27 0 -1
BITMAP
0000
0000
0000
0000
0000
6000
3000
3800
3000
3010
3038
30f0
3380
3c00
3000
3000
3000
3000
3000
3010
1ff8
0ff0
0000
0000
0000
0000
0000
ENDCHAR
STARTCHAR   cc
ENCODING 204
SWIDTH 481 0
DWIDTH 13 0
BBX 13 27 0 -1
BITMAP
0000
0000
0000
0000
0000
0010
41f8
3e30
1030
0030
0030
0030
0030
0060
0060
0060
00c0
00c0
0180
0180
0300
0600
0800
0000
0000
0000
0000
ENDCHAR
STARTCHAR   cd
ENCODING 205
SWIDTH 481 0
DWIDTH 13 0
BBX 13 27 0 -1
BITMAP
0000
0000
0000
0000
0000
0000
0200
0500
0500
0d80
0880
18c0
18c0
5840
7060
2060
0060
0030
0030
0038
0038
0010
0000
0000
0000
0000
0000
ENDCHAR
STARTCHAR   ce
ENCODING 206
SWIDTH 481 0
DWIDTH 13 0
BBX 13 27 0 -1
BITMAP
0000
0000
0000
0000
0600
0380
0300
0320
43f0
7f08
2300
0300
0300
0300
1320
1320
3330
3318
6318
6318
4308
0b00
0600
0000
0000
0000
0000
ENDCHAR
STARTCHAR   cf
ENCODING 207
SWIDTH 481 0
DWIDTH 13 0
BBX 13 27 0 -1
BITMAP
0000
0000
0000
0000
0000
0000
0020
41f0
7e38
2030
0030
0060
0060
20c0
1980
0f00
0600
0300
0180
01c0
00c0
0000
0000
0000
0000
0000
0000
ENDCHAR
STARTCHAR   d0
ENCODING 208
SWIDTH 481 0
DWIDTH 13 0
BBX 13 27 0 -1
BITMAP
0000
0000
0000
0000
0000
1e00
0700
01c0
00e0
0060
0000
1c00
0700
01c0
00e0
0060
0000
3c00
0f00
03c0
00e0
0070
0030
0000
0000
0000
0000
ENDCHAR
STARTCHAR   d1
ENCODING 209
SWIDTH 481 0
DWIDTH 13 0
BBX 13 27 0 -1
BITMAP
0000
0000
0000
0000
0000
0600
0300
0380
0300
0300
0600
0600
0600
0c00
0c40
0c20
1830
1810
1818
2078
6398
7c18
2010
0000
0000
0000
0000
ENDCHAR
STARTCHAR   d2
ENCODING 210
SWIDTH 481 0
DWIDTH 13 0
BBX 13 27 0 -1
BITMAP
0000
0000
0000
0000
0060
0030
0038
0030
0030
3060
0c60
0660
0360
01e0
00c0
00e0
01f0
01b8
0318
0618
0c00
1800
6000
0000
0000
0000
0000
ENDCHAR
STARTCHAR   d3
ENCODING 211
SWIDTH 481 0
DWIDTH 13 0
BBX 13 27 0 -1
BITMAP
0000
0000
0000
0000
0020
20f0
3f10
1600
0600
0600
0610
46f8
7f08
2600
0600
0600
0600
0600
0600
0610
03f8
01f0
0000
0000
0000
0000
0000
ENDCHAR
STARTCHAR   d4
ENCODING 212
SWIDTH 481 0
DWIDTH 13 0
BBX 13 27 0 -1
BITMAP
0000
0000
0000
0000
1800
0c00
0e00
0c10
0c78
4798
7e18
2630
0630
0330
0360
0340
0300
0180
0180
0180
0180
01c0
0180
0000
0000
0000
0000
ENDCHAR
STARTCHAR   d5
ENCODING 213
SWIDTH 481 0
DWIDTH 13 0
BBX 13 27 0 -1
BITMAP
0000
0000
0000
0000
0000
0000
0080
23c0
1ce0
08c0
00c0
00c0
00c0
00c0
0180
0180
0190
41f8
3f88
1000
0000
0000
0000
0000
0000
0000
0000
ENDCHAR
STARTCHAR   d6
ENCODING 214
SWIDTH 481 0
DWIDTH 13 0
BBX 13 27 0 -1
BITMAP
0000
0000
0000
0000
0000
0020
21f0
3e38
1030
0030
0030
0030
21f0
3e30
1060
0060
0060
0060
0060
43e0
7c60
2060
0000
0000
0000
0000
0000
ENDCHAR
STARTCHAR   d7
ENCODING 215
SWIDTH 481 0
DWIDTH 13 0
BBX 13 27 0 -1
BITMAP
0000
0000
0000
0000
0040
11e0
1e20
0800
0000
0020
43f0
3c38
1030
0030
0030
0060
0060
00c0
00c0
0180
0100
0200
0400
0000
0000
0000
0000
ENDCHAR
STARTCHAR   d8
ENCODING 216
SWIDTH 481 0
DWIDTH 13 0
BBX 13 27 0 -1
BITMAP
0000
0000
0000
00c0
6060
3070
3860
3060
3060
3060
3060
3060
3060
3060
7060
30c0
00c0
00c0
00c0
0180
0180
0300
0e00
0000
0000
0000
0000
ENDCHAR
STARTCHAR   d9
ENCODING 217
SWIDTH 481 0
DWIDTH 13 0
BBX 13 27 0 -1
BITMAP
0000
0000
0000
0000
0300
0180
19c0
0d80
0d80
0d80
0d80
0d80
0d80
0d88
1988
1988
1998
1998
31b0
31b0
21e0
41c0
0080
0000
0000
0000
0000
ENDCHAR
STARTCHAR   da
ENCODING 218
SWIDTH 481 0
DWIDTH 13 0
BBX 13 27 0 -1
BITMAP
0000
0000
0000
0000
1800
0c00
0e00
0c00
0c00
0c00
0c00
0c08
0c08
0c18
0c10
0c30
0c30
0c60
0c60
0cc0
0dc0
1f80
0e00
0000
0000
0000
0000
ENDCHAR
STARTCHAR   db
ENCODING 219
SWIDTH 481 0
DWIDTH 13 0
BBX 13 27 0 -1
BITMAP
0000
0000
0000
0000
0000
0020
41f0
3e38
2030
3030
3030
3030
3030
3030
3060
3060
3060
3060
3060
31f8
7e10
3000
0000
0000
0000
0000
0000
ENDCHAR
STARTCHAR   dc
ENCODING 220
SWIDTH 481 0
DWIDTH 13 0
BBX 13 27 0 -1
BITMAP
0000
0000
0000
0000
0020
41f0
3e38
2030
3030
3030
3030
3030
3830
3030
0060
0060
0060
0060
00c0
00c0
0180
0300
0c00
0000
0000
0000
0000
ENDCHAR
STARTCHAR   dd
ENCODING 221
SWIDTH 481 0
DWIDTH 13 0
BBX 13 27 0 -1
BITMAP
0000
0000
0000
0000
4000
3000
1800
1800
0c08
0e08
0c08
0008
0018
0010
0030
0020
0060
00c0
0380
4700
3e00
1800
0000
0000
0000
0000
0000
ENDCHAR
STARTCHAR   de
ENCODING 222
SWIDTH 481 0
DWIDTH 13 0
BBX 13 27 0 -1
BITMAP
0000
0000
0600
6180
18c0
0ce0
0e60
0600
0000
0000
0000
0000
0000
0000
0000
0000
0000
0000
0000
0000
0000
0000
0000
0000
0000
0000
0000
ENDCHAR
STARTCHAR   df
ENCODING 223
SWIDTH 481 0
DWIDTH 13 0
BBX 13 27 0 -1
BITMAP
0000
1e00
2100
4080
4080
4080
4080
2100
1e00
0000
0000
0000
0000
0000
0000
0000
0000
0000
0000
0000
0000
0000
0000
0000
0000
0000
0000
ENDCHAR
ENDFONT
